<svg xmlns="http://www.w3.org/2000/svg" id="Layer_1" data-name="Layer 1" viewBox="0 0 24 24" version="1.1" xmlns:xlink="http://www.w3.org/1999/xlink" xmlns:svgjs="http://svgjs.dev/svgjs"><g transform="matrix(1,0,0,1,0,0)"><path d="m22.135,9.072L3.363.242C2.49-.184,1.499-.045.777.606.054,1.258-.188,2.23.176,3.207l4.688,8.795L.233,20.86c-.333.914-.09,1.886.635,2.536.445.4.993.605,1.55.605.349,0,.7-.08,1.034-.244l18.686-8.822c1.149-.539,1.863-1.664,1.862-2.935,0-1.27-.717-2.393-1.865-2.929ZM1.087,2.8c-.229-.624.035-1.158.359-1.45.214-.192.529-.349.892-.349.187,0,.386.042.59.142.002,0,.005.002.007.003l18.775,8.832c.65.304,1.089.854,1.236,1.522H5.729L1.087,2.8Zm20.624,11.231L3.018,22.857c-.597.291-1.156.086-1.481-.205s-.591-.825-.39-1.39l4.585-8.763h17.216c-.144.671-.584,1.225-1.237,1.531Z" fill="#ffffff" fill-opacity="1" data-original-color="#000000ff" stroke="none" stroke-opacity="1"/></g></svg>
